<svg width="399" height="36" fill="none" xmlns="http://www.w3.org/2000/svg"><path d="M.8 35.5h8.688c10.272 0 18-6.768 18-17.04 0-10.272-7.728-17.04-18-17.04H.8V35.5zM8.576 8.764h.912c5.856 0 10.224 3.84 10.224 9.696s-4.368 9.696-10.224 9.696h-.912V8.764zM31.146 18.46c0 9.648 7.873 17.52 17.52 17.52 9.649 0 17.52-7.872 17.52-17.52S58.314.94 48.666.94c-9.647 0-17.52 7.872-17.52 17.52zm7.776 0c0-5.808 4.369-10.176 9.745-10.176 5.375 0 9.743 4.368 9.743 10.176s-4.367 10.176-9.743 10.176c-5.377 0-9.745-4.368-9.745-10.176zM104.172 1.42l-7.008 16.416L89.916.94h-.432l-7.2 16.896L75.228 1.42H67.02l14.832 34.56h.432l7.2-16.896 7.248 16.896h.432l14.784-34.56h-7.776zM135.92 1.42v16.992L117.248.94h-.432V35.5h7.776V18.556l18.672 17.424h.432V1.42h-7.776zM153.284 1.42V35.5h19.296v-7.344h-11.52V1.42h-7.776zM174.396 18.46c0 9.648 7.872 17.52 17.52 17.52s17.52-7.872 17.52-17.52S201.564.94 191.916.94s-17.52 7.872-17.52 17.52zm7.776 0c0-5.808 4.368-10.176 9.744-10.176 5.376 0 9.744 4.368 9.744 10.176s-4.368 10.176-9.744 10.176c-5.376 0-9.744-4.368-9.744-10.176zM241.902 35.5L226.302.94h-.432l-15.6 34.56h7.776l1.776-3.888h12.096l1.776 3.888h8.208zm-18.96-10.8l2.928-6.528 2.928 6.528h-5.856zM246.894 35.5h8.688c10.272 0 18-6.768 18-17.04 0-10.272-7.728-17.04-18-17.04h-8.688V35.5zm7.776-26.736h.912c5.856 0 10.224 3.84 10.224 9.696s-4.368 9.696-10.224 9.696h-.912V8.764zM275.848 35.5h.864L291.64 2.428 306.568 35.5h.912L291.88.94h-.432l-15.6 34.56zm19.824-10.032l-4.176-9.264-4.224 9.264h8.4zm-7.152-.768l2.928-6.528 2.928 6.528h-5.856zm-3.648 6.144L282.76 35.5h.864l1.776-3.888h12.096l1.776 3.888h.912l-2.112-4.656h-13.2zM313.336 35.5V2.188h8.688c7.632 0 13.632 4.32 13.632 11.952 0 3.792-2.064 7.152-5.76 9.168L338.2 35.5h.96L331 23.548c3.456-2.112 5.568-5.52 5.568-9.408 0-8.16-6.384-12.72-14.544-12.72h-9.552V35.5h.864zm6.912 0V20.476L330.52 35.5h.96l-10.128-14.832c5.52 0 7.92-2.976 7.92-6.528 0-4.176-3.072-6.576-7.248-6.576h-2.64V35.5h.864zm1.776-27.168c3.696 0 6.336 2.112 6.336 5.808 0 3.504-2.304 5.856-6.672 5.856h-1.44V8.332h1.776zM364.065 1.42h-19.296V35.5h19.296v-.816h-18.432V2.236h18.432V1.42zm0 6.528h-12.384v6.912h11.424v-.816h-10.56v-5.28h11.52v-.816zm-.96 12.624h-11.424v8.4h12.384v-.816h-11.52v-6.768h10.56v-.816zM367.301 35.5h.864l14.928-33.072L398.021 35.5h.912L383.333.94h-.432l-15.6 34.56zm19.824-10.032l-4.176-9.264-4.224 9.264h8.4zm-7.152-.768l2.928-6.528 2.928 6.528h-5.856zm-3.648 6.144l-2.112 4.656h.864l1.776-3.888h12.096l1.776 3.888h.912l-2.112-4.656h-13.2z" fill="#000028"/></svg>